<mxfile host="app.diagrams.net" modified="2024-06-17T00:42:42.228Z" agent="Mozilla/5.0 (Windows NT 10.0; Win64; x64) AppleWebKit/537.36 (KHTML, like Gecko) Chrome/126.0.0.0 Safari/537.36" version="24.5.2" etag="QnpA0dD5puzSbOO5PJl-" type="github">
  <diagram name="페이지-1" id="gCLxBCBcC7ByuCNYncqW">
    <mxGraphModel>
      <root>
        <mxCell id="0" />
        <mxCell id="1" parent="0" />
      </root>
    </mxGraphModel>
  </diagram>
</mxfile>
